<?xml version="1.0" encoding="UTF-8"?><svg xmlns="http://www.w3.org/2000/svg" xmlns:xlink="http://www.w3.org/1999/xlink" fill-opacity="1" color-rendering="auto" color-interpolation="auto" text-rendering="auto" stroke="black" stroke-linecap="square" width="800" stroke-miterlimit="10" shape-rendering="auto" stroke-opacity="1" fill="black" stroke-dasharray="none" font-weight="normal" stroke-width="1" height="411" font-family="'Dialog'" font-style="normal" stroke-linejoin="miter" font-size="12px" stroke-dashoffset="0" image-rendering="auto">
  <!--Generated by ySVG 2.5-->
  <defs id="genericDefs"/>
  <g>
    <defs id="defs1">
      <linearGradient x1="-522.1667" gradientUnits="userSpaceOnUse" x2="-415.5" y1="316.5" y2="316.5" id="linearGradient1" spreadMethod="reflect">
        <stop stop-opacity="1" stop-color="white" offset="0%"/>
        <stop stop-opacity="1" stop-color="rgb(0,204,255)" offset="100%"/>
      </linearGradient>
      <linearGradient x1="-522.1667" gradientUnits="userSpaceOnUse" x2="-415.5" y1="118.5" y2="118.5" id="linearGradient2" spreadMethod="reflect">
        <stop stop-opacity="1" stop-color="white" offset="0%"/>
        <stop stop-opacity="1" stop-color="rgb(0,204,255)" offset="100%"/>
      </linearGradient>
      <linearGradient x1="23.3333" gradientUnits="userSpaceOnUse" x2="110" y1="305" y2="305" id="linearGradient3" spreadMethod="reflect">
        <stop stop-opacity="1" stop-color="white" offset="0%"/>
        <stop stop-opacity="1" stop-color="rgb(0,204,255)" offset="100%"/>
      </linearGradient>
      <linearGradient x1="23.3333" gradientUnits="userSpaceOnUse" x2="110" y1="108" y2="108" id="linearGradient4" spreadMethod="reflect">
        <stop stop-opacity="1" stop-color="white" offset="0%"/>
        <stop stop-opacity="1" stop-color="rgb(0,204,255)" offset="100%"/>
      </linearGradient>
      <linearGradient x1="-242.1667" gradientUnits="userSpaceOnUse" x2="-145.5" y1="87.4975" y2="87.4975" id="linearGradient5" spreadMethod="reflect">
        <stop stop-opacity="1" stop-color="white" offset="0%"/>
        <stop stop-opacity="1" stop-color="red" offset="100%"/>
      </linearGradient>
      <linearGradient x1="-248.8333" gradientUnits="userSpaceOnUse" x2="-125.5" y1="212.9951" y2="212.9951" id="linearGradient6" spreadMethod="reflect">
        <stop stop-opacity="1" stop-color="white" offset="0%"/>
        <stop stop-opacity="1" stop-color="lime" offset="100%"/>
      </linearGradient>
      <clipPath clipPathUnits="userSpaceOnUse" id="clipPath1">
        <path d="M0 0 L800 0 L800 411 L0 411 L0 0 Z"/>
      </clipPath>
      <clipPath clipPathUnits="userSpaceOnUse" id="clipPath2">
        <path d="M-586 82 L115 82 L115 442.1388 L-586 442.1388 L-586 82 Z"/>
      </clipPath>
      <clipPath clipPathUnits="userSpaceOnUse" id="clipPath3">
        <path d="M-583 79 L118 79 L118 439.1388 L-583 439.1388 L-583 79 Z"/>
      </clipPath>
      <clipPath clipPathUnits="userSpaceOnUse" id="clipPath4">
        <path d="M-583 81 L118 81 L118 441.1388 L-583 441.1388 L-583 81 Z"/>
      </clipPath>
    </defs>
    <g text-rendering="geometricPrecision" stroke-miterlimit="1.45" shape-rendering="geometricPrecision" transform="matrix(1.1412,0,0,1.1412,668.7589,-93.5806)" stroke-linecap="butt">
      <path fill="none" d="M-542.5 218.5336 L-542.5 308.4674" clip-path="url(#clipPath2)"/>
    </g>
    <g text-rendering="geometricPrecision" stroke-miterlimit="1.45" shape-rendering="geometricPrecision" transform="matrix(1.1412,0,0,1.1412,668.7589,-93.5806)" stroke-linecap="butt">
      <path d="M-542.5 316.4674 L-537.5 304.4674 L-542.5 307.4674 L-547.5 304.4674 Z" stroke="none" clip-path="url(#clipPath2)"/>
      <rect x="-580.2861" y="256.9243" clip-path="url(#clipPath2)" fill="white" width="75.5723" height="21.1514" stroke="none"/>
    </g>
    <g fill="red" text-rendering="geometricPrecision" stroke-miterlimit="1.6" shape-rendering="geometricPrecision" transform="matrix(1.1412,0,0,1.1412,668.7589,-93.5806)" stroke="red">
      <rect fill="none" x="-580.2861" width="75.5723" height="21.1514" y="256.9243" clip-path="url(#clipPath2)"/>
    </g>
    <g font-size="14px" stroke-linecap="butt" transform="matrix(1.1412,0,0,1.1412,668.7589,-93.5806)" text-rendering="geometricPrecision" font-family="sans-serif" shape-rendering="geometricPrecision" font-style="italic" stroke-miterlimit="1.45">
      <text x="-578.2861" xml:space="preserve" y="272.9995" clip-path="url(#clipPath2)" stroke="none"> Right click </text>
      <path fill="none" d="M-448 316.4902 L-448 226.4807" clip-path="url(#clipPath2)"/>
      <path d="M-448 218.4807 L-453 230.4807 L-448 227.4807 L-443 230.4807 Z" stroke="none" clip-path="url(#clipPath2)"/>
    </g>
    <g stroke-linecap="butt" transform="matrix(1.1412,0,0,1.1412,668.7589,-93.5806)" fill="white" text-rendering="geometricPrecision" shape-rendering="geometricPrecision" stroke="white" stroke-miterlimit="1.45">
      <rect x="-485.7861" width="75.5723" height="21.1514" y="256.9243" clip-path="url(#clipPath2)" stroke="none"/>
    </g>
    <g fill="red" text-rendering="geometricPrecision" stroke-miterlimit="1.6" shape-rendering="geometricPrecision" transform="matrix(1.1412,0,0,1.1412,668.7589,-93.5806)" stroke="red">
      <rect fill="none" x="-485.7861" width="75.5723" height="21.1514" y="256.9243" clip-path="url(#clipPath2)"/>
    </g>
    <g font-size="14px" stroke-linecap="butt" transform="matrix(1.1412,0,0,1.1412,668.7589,-93.5806)" text-rendering="geometricPrecision" font-family="sans-serif" shape-rendering="geometricPrecision" font-style="italic" stroke-miterlimit="1.45">
      <text x="-483.7861" xml:space="preserve" y="272.9995" clip-path="url(#clipPath2)" stroke="none"> Right click </text>
    </g>
    <g text-rendering="geometricPrecision" stroke-miterlimit="1.45" stroke-width="3" shape-rendering="geometricPrecision" transform="matrix(1.1412,0,0,1.1412,668.7589,-93.5806)" stroke-linecap="butt">
      <path fill="none" d="M-138 273.7266 L-138 360 L-137.375 364.375 L-135.5 367.5 L-132.375 369.375 L-128 370 L-30.5095 370" clip-path="url(#clipPath2)"/>
      <path d="M-20.5095 370 L-35.5095 363.75 L-31.7595 370 L-35.5095 376.25 Z" clip-path="url(#clipPath2)" stroke="none"/>
      <rect x="-103.459" y="359.4243" clip-path="url(#clipPath2)" fill="white" width="39.793" height="21.1514" stroke="none"/>
    </g>
    <g fill="red" text-rendering="geometricPrecision" stroke-miterlimit="1.6" shape-rendering="geometricPrecision" transform="matrix(1.1412,0,0,1.1412,668.7589,-93.5806)" stroke="red">
      <rect fill="none" x="-103.459" width="39.793" height="21.1514" y="359.4243" clip-path="url(#clipPath2)"/>
    </g>
    <g stroke-linecap="butt" font-size="14px" transform="matrix(1.1412,0,0,1.1412,668.7589,-93.5806)" text-rendering="geometricPrecision" font-family="sans-serif" shape-rendering="geometricPrecision" font-style="italic" font-weight="bold" stroke-miterlimit="1.45">
      <text x="-101.459" xml:space="preserve" y="375.4995" clip-path="url(#clipPath2)" stroke="none"> YES </text>
    </g>
    <g text-rendering="geometricPrecision" stroke-miterlimit="1.45" stroke-width="3" shape-rendering="geometricPrecision" transform="matrix(1.1412,0,0,1.1412,668.7589,-93.5806)" stroke-linecap="butt">
      <path fill="none" d="M-138 259.2578 L-138 183 L-137.375 178.625 L-135.5 175.5 L-132.375 173.625 L-128 173 L-30.5095 173" clip-path="url(#clipPath2)"/>
      <path d="M-20.5095 173 L-35.5095 166.75 L-31.7595 173 L-35.5095 179.25 Z" clip-path="url(#clipPath2)" stroke="none"/>
      <rect x="-99.9521" y="162.4243" clip-path="url(#clipPath2)" fill="white" width="32.7793" height="21.1514" stroke="none"/>
    </g>
    <g fill="red" text-rendering="geometricPrecision" stroke-miterlimit="1.6" shape-rendering="geometricPrecision" transform="matrix(1.1412,0,0,1.1412,668.7589,-93.5806)" stroke="red">
      <rect fill="none" x="-99.9521" width="32.7793" height="21.1514" y="162.4243" clip-path="url(#clipPath2)"/>
    </g>
    <g stroke-linecap="butt" font-size="14px" transform="matrix(1.1412,0,0,1.1412,668.7589,-93.5806)" text-rendering="geometricPrecision" font-family="sans-serif" shape-rendering="geometricPrecision" font-style="italic" font-weight="bold" stroke-miterlimit="1.45">
      <text x="-97.9521" xml:space="preserve" y="178.4995" clip-path="url(#clipPath2)" stroke="none"> NO </text>
    </g>
    <g text-rendering="geometricPrecision" stroke-miterlimit="1.45" stroke-width="3" shape-rendering="geometricPrecision" transform="matrix(1.1412,0,0,1.1412,668.7589,-93.5806)" stroke-linecap="butt">
      <path fill="none" d="M-415.4756 366.5 L-308 366.5 L-303.625 365.875 L-300.5 364 L-298.625 360.875 L-298 356.5 L-298 283.7266" clip-path="url(#clipPath2)"/>
      <path d="M-298 273.7266 L-304.25 288.7266 L-298 284.9766 L-291.75 288.7266 Z" clip-path="url(#clipPath2)" stroke="none"/>
      <rect x="-388.4219" y="355.9243" clip-path="url(#clipPath2)" fill="white" width="72.4688" height="21.1514" stroke="none"/>
    </g>
    <g fill="red" text-rendering="geometricPrecision" stroke-miterlimit="1.6" shape-rendering="geometricPrecision" transform="matrix(1.1412,0,0,1.1412,668.7589,-93.5806)" stroke="red">
      <rect fill="none" x="-388.4219" width="72.4688" height="21.1514" y="355.9243" clip-path="url(#clipPath2)"/>
    </g>
    <g stroke-linecap="butt" font-size="14px" transform="matrix(1.1412,0,0,1.1412,668.7589,-93.5806)" text-rendering="geometricPrecision" font-family="sans-serif" shape-rendering="geometricPrecision" font-style="italic" font-weight="bold" stroke-miterlimit="1.45">
      <text x="-386.4219" xml:space="preserve" y="371.9995" clip-path="url(#clipPath2)" stroke="none"> Left click </text>
    </g>
    <g stroke-linecap="round" transform="matrix(1.1412,0,0,1.1412,668.7589,-93.5806)" stroke-dashoffset="2" fill="fuchsia" text-rendering="geometricPrecision" shape-rendering="geometricPrecision" stroke-dasharray="0,8" stroke="fuchsia" stroke-width="2" stroke-miterlimit="1.45">
      <path fill="none" d="M-218 167.4975 L-218 212.9842" clip-path="url(#clipPath2)"/>
    </g>
    <g text-rendering="geometricPrecision" stroke-miterlimit="1.45" stroke-width="3" shape-rendering="geometricPrecision" transform="matrix(1.1412,0,0,1.1412,668.7589,-93.5806)" stroke-linecap="butt">
      <path fill="none" d="M-415.4756 168.5 L-308 168.5 L-303.625 169.125 L-300.5 171 L-298.625 174.125 L-298 178.5 L-298 249.2422" clip-path="url(#clipPath2)"/>
      <path d="M-298 259.2422 L-291.75 244.2422 L-298 247.9922 L-304.25 244.2422 Z" clip-path="url(#clipPath2)" stroke="none"/>
      <rect x="-388.4219" y="157.9243" clip-path="url(#clipPath2)" fill="white" width="72.4688" height="21.1514" stroke="none"/>
    </g>
    <g fill="red" text-rendering="geometricPrecision" stroke-miterlimit="1.6" shape-rendering="geometricPrecision" transform="matrix(1.1412,0,0,1.1412,668.7589,-93.5806)" stroke="red">
      <rect fill="none" x="-388.4219" width="72.4688" height="21.1514" y="157.9243" clip-path="url(#clipPath2)"/>
    </g>
    <g stroke-linecap="butt" font-size="14px" transform="matrix(1.1412,0,0,1.1412,668.7589,-93.5806)" text-rendering="geometricPrecision" font-family="sans-serif" shape-rendering="geometricPrecision" font-style="italic" font-weight="bold" stroke-miterlimit="1.45">
      <text x="-386.4219" xml:space="preserve" y="173.9995" clip-path="url(#clipPath2)" stroke="none"> Left click </text>
    </g>
    <g fill="rgb(0,153,153)" text-rendering="geometricPrecision" shape-rendering="geometricPrecision" transform="matrix(1.1412,0,0,1.1412,668.7589,-93.5806) translate(-3,3)" stroke="rgb(0,153,153)">
      <path d="M-575.5 316.5 L-431.5 316.5 L-415.5 366.5 L-431.5 416.5 L-575.5 416.5 L-559.5 366.5 Z" fill-rule="evenodd" clip-path="url(#clipPath3)" stroke="none"/>
    </g>
    <g fill="url(#linearGradient1)" text-rendering="geometricPrecision" shape-rendering="geometricPrecision" transform="matrix(1.1412,0,0,1.1412,668.7589,-93.5806)" stroke="url(#linearGradient1)">
      <path d="M-575.5 316.5 L-431.5 316.5 L-415.5 366.5 L-431.5 416.5 L-575.5 416.5 L-559.5 366.5 Z" fill-rule="evenodd" clip-path="url(#clipPath2)" stroke="none"/>
    </g>
    <g stroke-linecap="butt" font-size="20px" transform="matrix(1.1412,0,0,1.1412,668.7589,-93.5806)" fill="blue" text-rendering="geometricPrecision" font-family="sans-serif" shape-rendering="geometricPrecision" stroke="blue" font-weight="bold" stroke-miterlimit="1.45">
      <text x="-537.1699" xml:space="preserve" y="362.1055" clip-path="url(#clipPath2)" stroke="none">CLOSED</text>
      <text x="-554.3965" xml:space="preserve" y="386.6074" clip-path="url(#clipPath2)" stroke="none">(initial state)</text>
    </g>
    <g stroke-linecap="butt" transform="matrix(1.1412,0,0,1.1412,668.7589,-93.5806)" fill="blue" text-rendering="geometricPrecision" shape-rendering="geometricPrecision" stroke="blue" stroke-width="3" stroke-miterlimit="1.45">
      <path fill="none" d="M-575.5 316.5 L-431.5 316.5 L-415.5 366.5 L-431.5 416.5 L-575.5 416.5 L-559.5 366.5 Z" fill-rule="evenodd" clip-path="url(#clipPath2)"/>
    </g>
    <g fill="rgb(0,153,153)" text-rendering="geometricPrecision" shape-rendering="geometricPrecision" transform="matrix(1.1412,0,0,1.1412,668.7589,-93.5806) translate(-3,3)" stroke="rgb(0,153,153)">
      <rect x="-575.5" width="160" height="100" y="118.5" clip-path="url(#clipPath3)" stroke="none"/>
    </g>
    <g fill="url(#linearGradient2)" text-rendering="geometricPrecision" shape-rendering="geometricPrecision" transform="matrix(1.1412,0,0,1.1412,668.7589,-93.5806)" stroke="url(#linearGradient2)">
      <rect x="-575.5" width="160" height="100" y="118.5" clip-path="url(#clipPath2)" stroke="none"/>
      <rect x="-575.5" y="118.5" clip-path="url(#clipPath2)" fill="white" width="1" height="100" stroke="none"/>
      <rect x="-574.5" y="118.5" clip-path="url(#clipPath2)" fill="white" width="158" height="1" stroke="none"/>
      <rect x="-574.5" y="217.5" clip-path="url(#clipPath2)" fill="rgb(178,178,178)" width="159" height="1" stroke="none"/>
      <rect x="-416.5" y="118.5" clip-path="url(#clipPath2)" fill="rgb(178,178,178)" width="1" height="99" stroke="none"/>
    </g>
    <g stroke-linecap="butt" font-size="20px" transform="matrix(1.1412,0,0,1.1412,668.7589,-93.5806)" fill="blue" text-rendering="geometricPrecision" font-family="sans-serif" shape-rendering="geometricPrecision" stroke="blue" font-weight="bold" stroke-miterlimit="1.45">
      <text x="-530.5146" xml:space="preserve" y="164.1055" clip-path="url(#clipPath2)" stroke="none">Marked</text>
      <text x="-558.8398" xml:space="preserve" y="188.6074" clip-path="url(#clipPath2)" stroke="none">(try to guess)</text>
    </g>
    <g fill="rgb(0,153,153)" text-rendering="geometricPrecision" shape-rendering="geometricPrecision" transform="matrix(1.1412,0,0,1.1412,668.7589,-93.5806) translate(-3,3)" stroke="rgb(0,153,153)">
      <path d="M-20 343.0762 L18.0761 305 L71.9239 305 L110 343.0762 L110 396.9238 L71.9239 435 L18.0761 435 L-20 396.9238 Z" fill-rule="evenodd" clip-path="url(#clipPath3)" stroke="none"/>
    </g>
    <g fill="url(#linearGradient3)" text-rendering="geometricPrecision" shape-rendering="geometricPrecision" transform="matrix(1.1412,0,0,1.1412,668.7589,-93.5806)" stroke="url(#linearGradient3)">
      <path d="M-20 343.0762 L18.0761 305 L71.9239 305 L110 343.0762 L110 396.9238 L71.9239 435 L18.0761 435 L-20 396.9238 Z" fill-rule="evenodd" clip-path="url(#clipPath2)" stroke="none"/>
    </g>
    <g stroke-linecap="butt" transform="matrix(1.1412,0,0,1.1412,668.7589,-93.5806)" fill="blue" text-rendering="geometricPrecision" shape-rendering="geometricPrecision" stroke="blue" stroke-width="3" stroke-miterlimit="1.45">
      <path fill="none" d="M-20 343.0762 L18.0761 305 L71.9239 305 L110 343.0762 L110 396.9238 L71.9239 435 L18.0761 435 L-20 396.9238 Z" fill-rule="evenodd" clip-path="url(#clipPath2)"/>
    </g>
    <g stroke-linecap="butt" font-size="20px" transform="matrix(1.1412,0,0,1.1412,668.7589,-93.5806)" fill="blue" text-rendering="geometricPrecision" font-family="sans-serif" shape-rendering="geometricPrecision" stroke="blue" font-weight="bold" stroke-miterlimit="1.45">
      <text x="2.7686" xml:space="preserve" y="365.6055" clip-path="url(#clipPath2)" stroke="none">OPENED</text>
      <text x="-7.2412" xml:space="preserve" y="390.1074" clip-path="url(#clipPath2)" stroke="none">(explosive)</text>
    </g>
    <g fill="rgb(0,153,153)" text-rendering="geometricPrecision" shape-rendering="geometricPrecision" transform="matrix(1.1412,0,0,1.1412,668.7589,-93.5806) translate(-3,3)" stroke="rgb(0,153,153)">
      <path d="M-20 146.0761 L18.0761 108 L71.9239 108 L110 146.0761 L110 199.9239 L71.9239 238 L18.0761 238 L-20 199.9239 Z" fill-rule="evenodd" clip-path="url(#clipPath3)" stroke="none"/>
    </g>
    <g fill="url(#linearGradient4)" text-rendering="geometricPrecision" shape-rendering="geometricPrecision" transform="matrix(1.1412,0,0,1.1412,668.7589,-93.5806)" stroke="url(#linearGradient4)">
      <path d="M-20 146.0761 L18.0761 108 L71.9239 108 L110 146.0761 L110 199.9239 L71.9239 238 L18.0761 238 L-20 199.9239 Z" fill-rule="evenodd" clip-path="url(#clipPath2)" stroke="none"/>
    </g>
    <g stroke-linecap="butt" transform="matrix(1.1412,0,0,1.1412,668.7589,-93.5806)" fill="blue" text-rendering="geometricPrecision" shape-rendering="geometricPrecision" stroke="blue" stroke-width="3" stroke-miterlimit="1.45">
      <path fill="none" d="M-20 146.0761 L18.0761 108 L71.9239 108 L110 146.0761 L110 199.9239 L71.9239 238 L18.0761 238 L-20 199.9239 Z" fill-rule="evenodd" clip-path="url(#clipPath2)"/>
    </g>
    <g stroke-linecap="butt" font-size="20px" transform="matrix(1.1412,0,0,1.1412,668.7589,-93.5806)" fill="blue" text-rendering="geometricPrecision" font-family="sans-serif" shape-rendering="geometricPrecision" stroke="blue" font-weight="bold" stroke-miterlimit="1.45">
      <text x="2.7686" xml:space="preserve" y="168.6055" clip-path="url(#clipPath2)" stroke="none">OPENED</text>
      <text x="18.3252" xml:space="preserve" y="193.1074" clip-path="url(#clipPath2)" stroke="none">(safe)</text>
    </g>
    <g fill="fuchsia" text-rendering="geometricPrecision" shape-rendering="geometricPrecision" transform="matrix(1.1412,0,0,1.1412,668.7589,-93.5806) translate(-3,1)" stroke="fuchsia">
      <ellipse rx="72.5" ry="40" clip-path="url(#clipPath4)" cx="-218" cy="127.4975" stroke="none"/>
    </g>
    <g fill="url(#linearGradient5)" text-rendering="geometricPrecision" shape-rendering="geometricPrecision" transform="matrix(1.1412,0,0,1.1412,668.7589,-93.5806)" stroke="url(#linearGradient5)">
      <ellipse rx="72.5" ry="40" clip-path="url(#clipPath2)" cx="-218" cy="127.4975" stroke="none"/>
    </g>
    <g stroke-linecap="butt" transform="matrix(1.1412,0,0,1.1412,668.7589,-93.5806)" fill="red" text-rendering="geometricPrecision" shape-rendering="geometricPrecision" stroke="red" stroke-width="3" stroke-miterlimit="1.45">
      <ellipse rx="72.5" fill="none" ry="40" clip-path="url(#clipPath2)" cx="-218" cy="127.4975"/>
    </g>
    <g stroke-linecap="butt" font-size="20px" transform="matrix(1.1412,0,0,1.1412,668.7589,-93.5806)" fill="fuchsia" text-rendering="geometricPrecision" font-family="sans-serif" shape-rendering="geometricPrecision" stroke="fuchsia" font-weight="bold" stroke-miterlimit="1.45">
      <text x="-240.7783" xml:space="preserve" y="123.103" clip-path="url(#clipPath2)" stroke="none">Mine</text>
      <text x="-252.4385" xml:space="preserve" y="147.6049" clip-path="url(#clipPath2)" stroke="none">(props)</text>
    </g>
    <g fill="rgb(0,153,153)" text-rendering="geometricPrecision" shape-rendering="geometricPrecision" transform="matrix(1.1412,0,0,1.1412,668.7589,-93.5806) translate(-3,1)" stroke="rgb(0,153,153)">
      <path d="M-310.5 266.4951 L-218 212.9951 L-125.5 266.4951 L-218 319.9951 Z" fill-rule="evenodd" clip-path="url(#clipPath4)" stroke="none"/>
    </g>
    <g fill="url(#linearGradient6)" text-rendering="geometricPrecision" shape-rendering="geometricPrecision" transform="matrix(1.1412,0,0,1.1412,668.7589,-93.5806)" stroke="url(#linearGradient6)">
      <path d="M-310.5 266.4951 L-218 212.9951 L-125.5 266.4951 L-218 319.9951 Z" fill-rule="evenodd" clip-path="url(#clipPath2)" stroke="none"/>
    </g>
    <g stroke-linecap="butt" transform="matrix(1.1412,0,0,1.1412,668.7589,-93.5806)" fill="green" text-rendering="geometricPrecision" shape-rendering="geometricPrecision" stroke="green" stroke-width="3" stroke-miterlimit="1.45">
      <path fill="none" d="M-310.5 266.4951 L-218 212.9951 L-125.5 266.4951 L-218 319.9951 Z" fill-rule="evenodd" clip-path="url(#clipPath2)"/>
    </g>
    <g stroke-linecap="butt" font-size="20px" transform="matrix(1.1412,0,0,1.1412,668.7589,-93.5806)" fill="green" text-rendering="geometricPrecision" font-family="sans-serif" shape-rendering="geometricPrecision" stroke="green" font-weight="bold" stroke-miterlimit="1.45">
      <text x="-273.5664" xml:space="preserve" y="274.3515" clip-path="url(#clipPath2)" stroke="none"> Has Mine? </text>
    </g>
  </g>
</svg>
