<?xml version="1.0" encoding="UTF-8" standalone="no"?>
<svg
   xmlns:dc="http://purl.org/dc/elements/1.1/"
   xmlns:cc="http://creativecommons.org/ns#"
   xmlns:rdf="http://www.w3.org/1999/02/22-rdf-syntax-ns#"
   xmlns:svg="http://www.w3.org/2000/svg"
   xmlns="http://www.w3.org/2000/svg"
   xmlns:sodipodi="http://sodipodi.sourceforge.net/DTD/sodipodi-0.dtd"
   xmlns:inkscape="http://www.inkscape.org/namespaces/inkscape"
   version="1.0"
   width="640"
   height="640"
   viewBox="0 0 6400 6400"
   preserveAspectRatio="xMidYMid meet"
   id="svg95"
   sodipodi:docname="boom1.svg"
   inkscape:version="0.92.4 (5da689c313, 2019-01-14)">
  <metadata
     id="metadata101">
    <rdf:RDF>
      <cc:Work
         rdf:about="">
        <dc:format>image/svg+xml</dc:format>
        <dc:type
           rdf:resource="http://purl.org/dc/dcmitype/StillImage" />
        <dc:title></dc:title>
      </cc:Work>
    </rdf:RDF>
  </metadata>
  <defs
     id="defs99" />
  <sodipodi:namedview
     pagecolor="#ffffff"
     bordercolor="#666666"
     borderopacity="1"
     objecttolerance="10"
     gridtolerance="10"
     guidetolerance="10"
     inkscape:pageopacity="0"
     inkscape:pageshadow="2"
     inkscape:window-width="3840"
     inkscape:window-height="2137"
     id="namedview97"
     showgrid="false"
     inkscape:zoom="2.2"
     inkscape:cx="316.61045"
     inkscape:cy="294.54543"
     inkscape:window-x="-8"
     inkscape:window-y="1072"
     inkscape:window-maximized="1"
     inkscape:current-layer="svg95"
     fit-margin-top="0"
     fit-margin-left="0"
     fit-margin-right="0"
     fit-margin-bottom="0" />
  <g
     id="layer101"
     transform="matrix(1.0119931,0,0,1.3333333,-34.301998,0)"
     style="fill:#fe0200;stroke:none">
    <path
       d="m 2180,4784 c 0,-8 13,-178 30,-377 58,-708 58,-699 40,-694 -8,2 -145,85 -305,184 -467,290 -507,314 -503,306 4,-10 164,-318 245,-470 30,-57 49,-103 42,-103 -6,0 -170,50 -363,111 -562,178 -751,237 -755,233 -2,-2 111,-122 251,-266 543,-561 648,-671 648,-679 0,-5 -103,-9 -228,-9 -126,0 -338,-3 -472,-7 l -244,-6 343,-169 c 189,-92 342,-170 340,-172 -3,-3 -276,-72 -608,-155 -332,-83 -605,-152 -607,-154 -4,-4 106,-29 471,-107 105,-23 294,-64 420,-91 127,-27 275,-59 330,-71 55,-12 103,-24 107,-27 4,-4 -151,-107 -344,-231 -307,-196 -348,-225 -322,-228 17,-2 141,8 275,22 333,34 509,49 513,45 4,-3 -96,-116 -409,-464 -38,-43 -75,-83 -81,-89 -52,-53 -322,-361 -320,-363 3,-3 497,168 1045,361 118,42 216,74 218,72 5,-4 -22,-82 -186,-530 -28,-77 -49,-141 -47,-144 6,-5 11,-2 225,168 101,80 228,180 282,224 55,43 102,77 104,74 3,-2 -4,-211 -15,-464 C 2289,262 2280,43 2280,28 V 0 h 80 79 l 54,73 c 44,60 306,424 478,664 24,34 46,62 50,62 3,1 15,-25 26,-57 25,-66 150,-391 195,-505 17,-43 34,-79 37,-82 4,-2 21,56 39,128 17,73 52,219 78,325 25,105 49,192 53,192 4,0 21,-19 38,-42 17,-24 39,-53 49,-64 11,-12 136,-173 279,-357 L 4075,1 4148,0 c 65,0 72,2 72,20 0,11 -9,120 -20,242 -32,364 -62,767 -58,788 2,16 37,-2 213,-112 387,-241 436,-270 440,-266 2,2 -59,123 -135,268 -77,146 -140,271 -140,277 0,9 7,10 27,2 15,-5 70,-23 122,-38 53,-16 191,-59 306,-96 116,-36 280,-88 365,-115 85,-27 220,-69 299,-94 80,-25 146,-44 149,-42 2,2 -216,231 -485,508 l -488,503 422,5 c 232,3 424,7 427,11 3,3 -116,65 -265,139 -148,73 -266,136 -262,140 4,4 276,73 603,154 327,81 604,150 615,153 20,6 -49,23 -490,118 -121,26 -299,64 -395,85 -96,21 -275,60 -397,86 -123,27 -223,52 -223,56 0,5 26,25 58,45 31,20 174,111 317,203 143,92 280,180 305,195 30,19 40,30 29,33 -9,1 -139,-9 -289,-23 -150,-14 -275,-23 -278,-21 -4,5 159,189 440,499 166,182 297,332 294,335 -3,3 -402,-136 -1146,-398 -173,-60 -317,-109 -320,-108 -4,2 38,125 92,273 139,378 198,545 193,545 -2,0 -39,-28 -82,-63 -181,-147 -365,-288 -370,-284 -2,3 3,171 11,374 9,203 16,377 16,386 0,15 -12,17 -84,17 h -83 l -100,-137 c -163,-226 -463,-643 -511,-711 -25,-35 -48,-60 -53,-55 -5,6 -231,584 -319,818 -5,13 -18,-28 -44,-135 -20,-85 -51,-212 -67,-282 -17,-71 -34,-128 -37,-128 -4,1 -117,142 -251,315 l -244,315 h -73 c -61,0 -74,-3 -74,-16 z"
       id="path82"
       inkscape:connector-curvature="0" />
  </g>
  <g
     id="layer102"
     transform="matrix(1.0119931,0,0,1.3333333,-34.301998,0)"
     style="fill:#fe6500;stroke:none">
    <path
       d="m 3636,4188 -360,-500 -36,94 c -19,51 -83,215 -140,365 -58,150 -107,267 -111,260 -3,-7 -30,-114 -59,-239 -30,-126 -56,-228 -60,-228 -3,0 -132,162 -285,359 -154,198 -281,358 -283,357 -1,-2 18,-254 43,-561 25,-307 44,-559 43,-560 -2,-1 -162,96 -357,217 -194,120 -354,218 -355,216 -2,-2 55,-113 126,-247 70,-134 126,-246 124,-248 -2,-2 -221,64 -486,147 -264,84 -483,151 -485,149 -1,-2 174,-186 391,-409 216,-223 393,-408 394,-412 0,-5 -188,-8 -417,-9 l -418,-1 297,-146 c 163,-81 299,-150 303,-153 3,-4 -234,-66 -527,-140 l -533,-133 145,-31 c 80,-17 342,-74 582,-126 241,-52 438,-96 438,-99 0,-3 -137,-93 -305,-200 -170,-109 -297,-196 -287,-198 9,-1 170,13 357,32 187,19 341,33 342,32 2,-2 -157,-180 -352,-397 -195,-217 -351,-395 -347,-396 4,-2 250,83 546,187 297,104 541,188 543,186 2,-1 -44,-132 -102,-290 -58,-158 -105,-291 -105,-297 0,-5 118,85 263,200 l 262,209 3,-62 c 1,-33 -6,-268 -17,-521 -10,-253 -18,-461 -17,-462 1,-1 146,198 322,442 175,244 322,445 325,445 3,0 54,-128 115,-285 74,-194 111,-280 116,-268 4,10 35,138 69,286 35,147 66,267 70,267 4,0 157,-193 341,-429 183,-236 335,-427 337,-425 2,2 -16,244 -40,538 -24,294 -40,538 -37,541 3,3 133,-73 288,-170 156,-96 284,-174 285,-173 1,2 -55,112 -125,246 -70,133 -125,242 -122,242 8,0 1094,-341 1107,-348 6,-2 -33,40 -86,94 -53,55 -246,254 -430,444 l -334,345 380,3 380,3 -245,124 c -145,73 -239,125 -230,129 8,3 242,62 520,131 278,69 513,129 522,133 11,4 -233,61 -630,146 -356,76 -653,142 -660,146 -9,4 102,81 305,210 175,112 321,206 325,209 4,4 -111,-5 -255,-20 -144,-14 -264,-25 -265,-23 -2,1 141,163 317,360 177,196 320,359 318,361 -2,2 -287,-96 -632,-217 -345,-121 -630,-219 -632,-216 -2,2 53,158 122,347 69,189 124,346 123,350 -2,4 -88,-60 -191,-143 -104,-82 -192,-147 -195,-143 -3,3 1,200 11,437 9,238 15,433 14,434 -1,1 -164,-223 -361,-498 z"
       id="path85"
       inkscape:connector-curvature="0" />
  </g>
  <g
     id="layer103"
     transform="matrix(1.0119931,0,0,1.3333333,-34.301998,0)"
     style="fill:#fefd01;stroke:none">
    <path
       d="m 3610,3963 c -140,-195 -275,-383 -299,-416 -43,-60 -44,-60 -56,-36 -7,13 -61,152 -121,307 -73,194 -110,278 -115,265 -3,-10 -26,-102 -50,-205 -31,-136 -46,-185 -54,-178 -6,5 -115,142 -241,304 -126,162 -230,291 -232,287 -2,-5 13,-208 33,-451 20,-243 35,-452 33,-465 -3,-20 -31,-4 -298,161 -162,101 -296,182 -297,180 -1,-1 45,-93 103,-205 58,-111 104,-205 101,-208 -3,-2 -186,52 -407,122 -221,69 -404,125 -405,123 -2,-2 146,-158 330,-348 l 333,-345 -356,-5 -356,-5 257,-125 c 141,-68 253,-127 249,-131 -4,-4 -204,-55 -445,-114 -241,-59 -436,-109 -434,-111 2,-2 221,-51 486,-108 266,-58 484,-106 486,-108 2,-2 -113,-77 -255,-168 -142,-91 -254,-167 -249,-168 5,-2 131,8 279,23 148,14 279,25 291,23 17,-2 -33,-63 -275,-332 -163,-181 -295,-330 -293,-332 2,-2 208,68 458,156 250,88 457,159 460,157 3,-1 -34,-112 -83,-246 -49,-134 -87,-245 -85,-247 1,-2 102,75 222,171 121,95 222,172 224,170 2,-2 -5,-192 -14,-423 -9,-231 -15,-427 -13,-436 2,-10 110,132 273,358 148,207 270,374 272,373 1,-2 41,-104 89,-228 47,-123 90,-230 94,-238 10,-18 7,-28 70,244 29,121 53,221 55,223 3,3 101,-120 394,-497 165,-213 181,-230 181,-200 0,19 -16,225 -35,458 -19,234 -33,426 -31,429 2,2 111,-63 241,-143 130,-81 238,-146 240,-144 2,2 -44,93 -101,203 -58,109 -103,200 -102,202 2,1 210,-63 462,-142 252,-80 460,-143 462,-141 3,2 -154,168 -348,368 l -353,364 120,6 c 66,4 208,7 315,9 l 195,2 -197,96 c -108,54 -199,100 -203,103 -3,4 198,57 447,119 344,86 446,115 428,121 -14,5 -257,58 -540,119 -283,61 -523,114 -533,118 -14,6 44,47 253,181 149,95 270,175 268,176 -2,1 -97,-6 -211,-17 -114,-12 -210,-18 -213,-15 -3,3 114,139 261,302 147,163 265,298 263,300 -2,2 -241,-80 -532,-181 -290,-102 -530,-184 -532,-181 -2,2 43,134 101,292 57,159 103,291 100,293 -2,2 -75,-52 -162,-121 l -158,-126 -2,62 c -2,34 3,200 10,370 6,169 10,307 7,307 -3,-1 -120,-161 -260,-357 z"
       id="path88"
       inkscape:connector-curvature="0" />
  </g>
  <g
     id="layer104"
     transform="matrix(1.0119931,0,0,1.3333333,-34.301998,0)"
     style="fill:#fefea2;stroke:none" />
  <g
     id="layer105"
     transform="matrix(1.0119931,0,0,1.3333333,-34.301998,0)"
     style="fill:#fefefe;stroke:none">
    <path
       d="m 3528,3658 c -112,-156 -219,-304 -238,-331 -18,-26 -37,-44 -41,-40 -4,5 -46,109 -94,232 -47,123 -88,228 -92,234 -3,6 -23,-60 -44,-147 -20,-87 -39,-159 -41,-162 -3,-2 -87,102 -187,231 -100,129 -187,237 -192,241 -7,4 -9,-9 -5,-37 10,-78 58,-701 54,-705 -2,-2 -92,51 -199,117 -107,67 -214,133 -238,147 l -44,26 86,-166 c 48,-91 87,-167 87,-170 0,-3 -147,41 -327,98 -180,57 -328,102 -329,101 -1,-1 118,-126 264,-277 l 267,-275 -285,-5 -284,-5 207,-100 c 113,-55 201,-102 194,-106 -6,-3 -164,-44 -349,-90 -186,-46 -334,-87 -330,-90 4,-4 169,-41 367,-83 198,-43 368,-80 377,-84 13,-5 -35,-40 -187,-137 -125,-80 -198,-131 -187,-133 10,-2 108,6 217,18 110,11 210,20 223,20 19,0 -19,-47 -204,-252 -125,-139 -234,-261 -243,-271 -13,-16 -5,-15 54,7 206,75 670,235 673,231 2,-2 -28,-90 -67,-196 -39,-106 -69,-194 -68,-196 2,-1 82,60 178,136 l 174,139 2,-42 c 2,-22 -3,-179 -10,-349 -6,-169 -10,-307 -7,-307 3,1 100,133 215,295 116,162 213,294 216,295 3,0 34,-75 69,-167 35,-93 68,-178 75,-191 10,-20 17,1 56,167 24,105 47,191 50,191 3,0 107,-129 230,-286 122,-158 224,-283 226,-278 2,5 -10,169 -26,364 -16,195 -28,356 -27,357 1,2 83,-47 181,-108 99,-61 186,-114 194,-117 8,-3 -23,65 -68,152 -46,87 -81,159 -79,162 3,2 168,-48 368,-111 201,-63 365,-113 366,-112 2,1 -123,132 -277,292 -153,159 -279,293 -279,297 0,4 111,8 248,9 h 247 l -163,82 -163,82 365,90 c 200,50 363,91 361,93 -1,1 -199,45 -440,97 -241,52 -440,97 -442,99 -3,2 36,30 86,63 329,211 348,225 306,219 -95,-13 -273,-28 -292,-24 -18,2 16,44 193,241 118,130 210,237 205,237 -5,0 -196,-65 -423,-145 -227,-80 -416,-144 -419,-143 -3,2 32,106 78,232 46,126 82,231 79,233 -2,2 -61,-41 -130,-97 l -126,-100 v 97 c 1,54 5,186 10,293 4,107 7,196 5,198 -2,2 -95,-124 -207,-280 z"
       id="path92"
       inkscape:connector-curvature="0" />
  </g>
</svg>
